<svg width="14" height="14" viewBox="0 0 14 14" fill="none" xmlns="http://www.w3.org/2000/svg">
<path d="M4.67414 3.97408L6.26934 2.37191V9.05225C6.26934 9.23699 6.34274 9.41418 6.47337 9.54481C6.60401 9.67545 6.78119 9.74884 6.96594 9.74884C7.15069 9.74884 7.32787 9.67545 7.4585 9.54481C7.58914 9.41418 7.66253 9.23699 7.66253 9.05225V2.37191L9.25773 3.97408C9.32249 4.03937 9.39953 4.09119 9.48442 4.12656C9.56931 4.16192 9.66035 4.18013 9.75231 4.18013C9.84427 4.18013 9.93532 4.16192 10.0202 4.12656C10.1051 4.09119 10.1821 4.03937 10.2469 3.97408C10.3122 3.90932 10.364 3.83228 10.3994 3.74739C10.4347 3.6625 10.4529 3.57145 10.4529 3.4795C10.4529 3.38754 10.4347 3.29649 10.3994 3.2116C10.364 3.12672 10.3122 3.04967 10.2469 2.98491L7.46052 0.198539C7.39427 0.13512 7.31615 0.0854079 7.23064 0.0522539C7.06105 -0.017418 6.87083 -0.017418 6.70123 0.0522539C6.61572 0.0854079 6.53761 0.13512 6.47136 0.198539L3.68498 2.98491C3.62003 3.04986 3.56851 3.12697 3.53336 3.21183C3.49821 3.29669 3.48012 3.38764 3.48012 3.4795C3.48012 3.57135 3.49821 3.6623 3.53336 3.74716C3.56851 3.83202 3.62003 3.90913 3.68498 3.97408C3.74993 4.03903 3.82704 4.09055 3.9119 4.1257C3.99676 4.16085 4.08771 4.17894 4.17956 4.17894C4.27142 4.17894 4.36237 4.16085 4.44723 4.1257C4.53209 4.09055 4.6092 4.03903 4.67414 3.97408ZM13.2353 8.35565C13.0505 8.35565 12.8734 8.42904 12.7427 8.55968C12.6121 8.69032 12.5387 8.8675 12.5387 9.05225V11.8386C12.5387 12.0234 12.4653 12.2006 12.3347 12.3312C12.204 12.4618 12.0268 12.5352 11.8421 12.5352H2.08978C1.90503 12.5352 1.72785 12.4618 1.59722 12.3312C1.46658 12.2006 1.39319 12.0234 1.39319 11.8386V9.05225C1.39319 8.8675 1.3198 8.69032 1.18916 8.55968C1.05852 8.42904 0.881342 8.35565 0.696594 8.35565C0.511846 8.35565 0.334664 8.42904 0.204028 8.55968C0.0733909 8.69032 0 8.8675 0 9.05225V11.8386C0 12.3929 0.220173 12.9244 0.612083 13.3163C1.00399 13.7082 1.53554 13.9284 2.08978 13.9284H11.8421C12.3963 13.9284 12.9279 13.7082 13.3198 13.3163C13.7117 12.9244 13.9319 12.3929 13.9319 11.8386V9.05225C13.9319 8.8675 13.8585 8.69032 13.7278 8.55968C13.5972 8.42904 13.42 8.35565 13.2353 8.35565Z" fill="#6D6B6B"/>
</svg>
