<svg width="13" height="13" viewBox="0 0 13 13" fill="none" xmlns="http://www.w3.org/2000/svg">
<path d="M3.47852 7.20605H9.04395C9.89997 7.20618 10.7209 7.54704 11.3262 8.15234C11.9315 8.7577 12.2714 9.57852 12.2715 10.4346C12.2715 10.9218 12.0779 11.3889 11.7334 11.7334C11.3889 12.0779 10.9218 12.2715 10.4346 12.2715H2.08691C1.59974 12.2715 1.13257 12.0779 0.788086 11.7334C0.44367 11.3889 0.25 10.9217 0.25 10.4346C0.250056 9.57858 0.590106 8.75769 1.19531 8.15234C1.80073 7.54693 2.62233 7.20605 3.47852 7.20605ZM6.26074 0.25C6.93243 0.25 7.5768 0.517231 8.05176 0.992188C8.52648 1.46703 8.79384 2.11078 8.79395 2.78223C8.79395 3.45386 8.52663 4.0983 8.05176 4.57324C7.5768 5.0482 6.93243 5.31543 6.26074 5.31543C5.5891 5.3154 4.94465 5.04817 4.46973 4.57324C3.99493 4.09831 3.72852 3.4538 3.72852 2.78223C3.72862 2.11084 3.99509 1.46702 4.46973 0.992188C4.94465 0.517261 5.5891 0.250034 6.26074 0.25Z" fill="white" stroke="#6D6B6B" stroke-width="0.5"/>
</svg>
