<svg width="10" height="5" viewBox="0 0 10 5" fill="none" xmlns="http://www.w3.org/2000/svg">
<path d="M9.7511 4.06295C9.7511 4.27847 9.66549 4.48515 9.5131 4.63754C9.36071 4.78993 9.15402 4.87555 8.93851 4.87555C8.723 4.87555 8.51631 4.78993 8.36392 4.63754C8.21153 4.48515 8.12592 4.27847 8.12592 4.06295C8.12592 3.84744 8.21153 3.64076 8.36392 3.48837C8.51631 3.33597 8.723 3.25036 8.93851 3.25036C9.15402 3.25036 9.36071 3.33597 9.5131 3.48837C9.66549 3.64076 9.7511 3.84744 9.7511 4.06295ZM9.7511 0.812591C9.7511 1.0281 9.66549 1.23479 9.5131 1.38718C9.36071 1.53957 9.15402 1.62518 8.93851 1.62518C8.723 1.62518 8.51631 1.53957 8.36392 1.38718C8.21153 1.23479 8.12592 1.0281 8.12592 0.812591C8.12592 0.597078 8.21153 0.390393 8.36392 0.238002C8.51631 0.0856122 8.723 0 8.93851 0C9.15402 0 9.36071 0.0856122 9.5131 0.238002C9.66549 0.390393 9.7511 0.597078 9.7511 0.812591ZM5.68814 4.06295C5.68814 4.27847 5.60253 4.48515 5.45014 4.63754C5.29775 4.78993 5.09106 4.87555 4.87555 4.87555C4.66004 4.87555 4.45335 4.78993 4.30096 4.63754C4.14857 4.48515 4.06296 4.27847 4.06296 4.06295C4.06296 3.84744 4.14857 3.64076 4.30096 3.48837C4.45335 3.33597 4.66004 3.25036 4.87555 3.25036C5.09106 3.25036 5.29775 3.33597 5.45014 3.48837C5.60253 3.64076 5.68814 3.84744 5.68814 4.06295ZM5.68814 0.812591C5.68814 1.0281 5.60253 1.23479 5.45014 1.38718C5.29775 1.53957 5.09106 1.62518 4.87555 1.62518C4.66004 1.62518 4.45335 1.53957 4.30096 1.38718C4.14857 1.23479 4.06296 1.0281 4.06296 0.812591C4.06296 0.597078 4.14857 0.390393 4.30096 0.238002C4.45335 0.0856122 4.66004 0 4.87555 0C5.09106 0 5.29775 0.0856122 5.45014 0.238002C5.60253 0.390393 5.68814 0.597078 5.68814 0.812591ZM1.62518 4.06295C1.62518 4.27847 1.53957 4.48515 1.38718 4.63754C1.23479 4.78993 1.0281 4.87555 0.812592 4.87555C0.597079 4.87555 0.390393 4.78993 0.238003 4.63754C0.0856123 4.48515 0 4.27847 0 4.06295C0 3.84744 0.0856123 3.64076 0.238003 3.48837C0.390393 3.33597 0.597079 3.25036 0.812592 3.25036C1.0281 3.25036 1.23479 3.33597 1.38718 3.48837C1.53957 3.64076 1.62518 3.84744 1.62518 4.06295ZM1.62518 0.812591C1.62518 1.0281 1.53957 1.23479 1.38718 1.38718C1.23479 1.53957 1.0281 1.62518 0.812592 1.62518C0.597079 1.62518 0.390393 1.53957 0.238003 1.38718C0.0856123 1.23479 0 1.0281 0 0.812591C0 0.597078 0.0856123 0.390393 0.238003 0.238002C0.390393 0.0856122 0.597079 0 0.812592 0C1.0281 0 1.23479 0.0856122 1.38718 0.238002C1.53957 0.390393 1.62518 0.597078 1.62518 0.812591Z" fill="#6D6B6B"/>
</svg>
